# xmcd
#
# Track frame offsets: 
#        150
#        24236
#        36981
#        49347
#        59062
#        87443
#        99166
#        121874
#        154307
#        224973
#
# Disc length: 3128 seconds
#
# Revision: 1
# Processed by: cddbd v1.5.2PL0 Copyright (c) Steve Scherf et al.
# Submitted via: ExactAudioCopyFreeDBPlugin 1.0
#
DISCID=8f0c360a
DTITLE=Yorkston, Thorne, Khan - Neuk Wight Delhi All-Stars
DYEAR=2017
DGENRE=Jazz
TTITLE0=Chori, Chori
TTITLE1=Samant Sarang - Just a Bloke
TTITLE2=Bales
TTITLE3=Jaldhar Kedara - Wedding Song
TTITLE4=False True - Piya
TTITLE5=The Blue of the Thistle
TTITLE6=The Recruited Collier
TTITLE7=The Blues you Sang
TTITLE8=Halleluwah
TTITLE9=One More Day (Jons's Song)
EXTD=YEAR: 2017
EXTT0=
EXTT1=
EXTT2=
EXTT3=
EXTT4=
EXTT5=
EXTT6=
EXTT7=
EXTT8=
EXTT9=
PLAYORDER=
